<svg xmlns="http://www.w3.org/2000/svg" xmlns:xlink="http://www.w3.org/1999/xlink"><defs><style>.cls-1{fill:#6e7172;}</style><style>.cls-1{fill:#6e7172;stroke:#6e7172;}</style></defs><symbol id="adobe" viewBox="0 0 116 26">
    <g id="Page-1" stroke="none" stroke-width="1" fill="none" fill-rule="evenodd">
        <g id="Version-B" transform="translate(-329.000000, -756.000000)">
            <g id="Logos" transform="translate(80.000000, 745.000000)">
                <g id="Adobe" transform="translate(249.000000, 11.000000)">
                    <g id="Group-15" transform="translate(34.666667, 0.000000)">
                        <polygon id="Clip-11" points="0.257539785 0 65.024591 0 65.024591 25.9842424 0.257539785 25.9842424"/>
                        <path d="M6.5927557,16.2095556 L7.5091243,10.976202 C7.77139441,9.52939394 8.14298753,6.93963636 8.41077634,5.27773737 L8.50091527,5.27773737 C8.74768043,6.9320202 9.08195656,9.44692929 9.32294022,10.9683232 L10.1591561,16.2095556 L6.5927557,16.2095556 Z M10.5893527,19.985596 L11.6584056,25.7032323 L16.4008168,25.7032323 L11.5304241,0.668646465 L5.69793634,0.668646465 L0.257539785,25.7032323 L4.98392043,25.7032323 L6.08240645,19.985596 L10.5893527,19.985596 L10.5893527,19.985596 Z" id="Fill-10" fill="#000000" opacity="0.35172526"/>
                        <path d="M26.9063376,19.3009293 C26.9063376,19.7678788 26.847997,20.1552525 26.7441927,20.4388889 C26.3662925,21.6884646 25.6843376,22.0109697 25.0538908,22.0109697 C23.7070628,22.0109697 22.7620495,20.2143434 22.7620495,16.7594949 C22.7620495,13.810202 23.3982778,11.3320606 25.101194,11.3320606 C26.0919338,11.3320606 26.6622004,12.3418586 26.8398503,13.4514545 C26.9063376,13.8015354 26.9063376,14.1886465 26.9063376,14.5095758 L26.9063376,19.3009293 Z M26.9063376,0 L26.9063376,9.06008081 L26.8319665,9.06008081 C26.3581458,8.03111111 25.3855389,7.22563636 23.7643523,7.22563636 C20.7014684,7.22563636 17.9242434,10.3280404 17.9242434,16.6578586 C17.9242434,21.7147273 19.7028447,26 23.5785557,26 C25.2417897,26 26.6950499,24.9400404 27.3617626,23.6479192 L27.4516387,23.6479192 L27.717588,25.7032323 L31.9068142,25.7032323 C31.8403269,24.0384444 31.7580718,22.0464242 31.7580718,20.3346263 L31.7580718,0 L26.9063376,0 L26.9063376,0 Z" id="Fill-12" fill="#000000" opacity="0.35172526"/>
                        <path d="M41.5219832,22.303798 C39.823009,22.303798 39.32396,19.6859394 39.32396,16.583798 C39.32396,14.0673131 39.7055394,10.9218384 41.484929,10.9218384 C43.1334465,10.9218384 43.5447217,14.0673131 43.5447217,16.583798 C43.5447217,19.2465657 43.1334465,22.303798 41.5593002,22.303798 L41.5219832,22.303798 Z M41.5143622,26 C44.2274649,26 48.4198447,24.1245859 48.4198447,16.5543838 C48.4198447,10.8296566 45.8473376,7.22563636 41.5614026,7.22563636 C37.9532176,7.22563636 34.5232082,10.1557576 34.5232082,16.6715152 C34.5232082,22.572202 37.1325067,26 41.477308,26 L41.5143622,26 L41.5143622,26 Z" id="Fill-13" fill="#000000" opacity="0.35172526"/>
                        <path d="M56.0130637,14.1266667 C56.0130637,13.7981212 56.1011002,13.3014949 56.1967578,13.002101 C56.4490417,12.1173131 57.0915772,11.3320606 57.8555243,11.3320606 C59.46252,11.3320606 60.1865222,13.3574343 60.1865222,16.4958182 C60.1865222,19.9800808 59.499837,22.0109697 57.8710292,22.0109697 C57.2936671,22.0109697 56.6119751,21.6587879 56.2046417,20.3645657 C56.1011002,20.0888081 56.0130637,19.6586263 56.0130637,19.1992929 L56.0130637,14.1266667 Z M51.1613295,20.3346263 C51.1613295,22.0464242 51.0793372,24.0970101 51.0128499,25.7032323 L55.1723802,25.7032323 L55.4383295,23.5659798 L55.5282056,23.5659798 C56.5176314,25.3794141 57.5853703,26 59.0964456,26 C62.5009639,26 65.024591,22.4842222 65.024591,16.1150101 C65.024591,11.2262222 63.399988,7.22563636 59.8785256,7.22563636 C58.1219991,7.22563636 56.9656981,8.06026263 56.0874348,9.37838384 L56.0130637,9.37838384 L56.0130637,0 L51.1613295,0 L51.1613295,20.3346263 L51.1613295,20.3346263 Z" id="Fill-14" fill="#000000" opacity="0.35172526"/>
                    </g>
                    <path d="M106.847032,15.0870296 C106.885982,13.264941 107.528521,10.9538148 109.103239,10.9538148 C110.542809,10.9538148 111.159207,12.770687 111.143523,15.0870296 L106.847032,15.0870296 Z M115.409952,18.5016853 C115.497523,17.9583972 115.555556,17.2479235 115.555556,15.9560819 C115.555556,10.4934675 113.282619,7.42857143 109.39131,7.42857143 C105.321459,7.42857143 102.151111,11.0435369 102.151111,17.1156877 C102.151111,22.755399 104.860598,26 109.792047,26 C111.61667,26 113.523114,25.6758007 114.752251,25.1729397 L114.120168,21.7157704 C113.237134,22.0342316 112.050345,22.3294799 110.67116,22.3294799 C108.528665,22.3294799 106.897222,21.2867215 106.83919,18.4727343 L115.409952,18.5016853 L115.409952,18.5016853 Z" id="Fill-16" fill="#000000" opacity="0.35172526"/>
                    <polyline id="Fill-18" fill="#000000" opacity="0.345424107" points="0 0 11.0933333 0 0 26 0 0"/>
                    <polyline id="Fill-19" fill="#000000" opacity="0.345424107" points="10.1688889 20.4538355 15.2483239 20.4538355 17.1653172 25.5357143 21.7244444 25.5357143 14.8853555 9.75 10.1688889 20.4538355"/>
                    <polyline id="Fill-20" fill="#000000" opacity="0.345424107" points="18.4888889 0 29.12 0 29.12 26 18.4888889 0"/>
                </g>
            </g>
        </g>
    </g>
</symbol><symbol id="atlassian" viewBox="0 0 223 28">
    <g id="Page-1" stroke="none" stroke-width="1" fill="none" fill-rule="evenodd">
        <g id="Version-B" transform="translate(-896.000000, -754.000000)" fill="#000000">
            <g id="Logos" transform="translate(80.000000, 745.000000)">
                <g id="Atlassian" transform="translate(816.000000, 9.000000)">
                    <path d="M8.08705882,12.9952941 C7.92250703,12.7797271 7.65714783,12.6659885 7.3875611,12.6954746 C7.11797436,12.7249606 6.88347523,12.8933712 6.76941176,13.1394118 L0.0864705882,26.5011765 C-0.0379736812,26.7492011 -0.0247871367,27.0440382 0.121301717,27.2799633 C0.267390571,27.5158884 0.525449076,27.6590965 0.802941176,27.6582353 L10.1088235,27.6582353 C10.4138484,27.6663048 10.6948632,27.4934968 10.8252941,27.2176471 C12.8264706,23.0588235 11.6117647,16.7588235 8.08705882,12.9952941 Z" id="Path" opacity="0.35"/>
                    <path d="M12.9911765,0.823529412 C9.59062642,6.03685094 9.19153348,12.6570986 11.9411765,18.2411765 L16.45,27.2176471 C16.5859097,27.4885302 16.8634058,27.6591744 17.1664706,27.6582353 L26.4723529,27.6582353 C26.7476443,27.6548422 27.0017872,27.5099288 27.1449085,27.2747412 C27.2880297,27.0395537 27.2999563,26.7472418 27.1764706,26.5011765 L14.35,0.823529412 C14.2246337,0.56216954 13.9604601,0.395892971 13.6705882,0.395892971 C13.3807164,0.395892971 13.1165428,0.56216954 12.9911765,0.823529412 Z" id="Path" opacity="0.35"/>
                    <path d="M122.145882,11.5541176 C122.145882,14.8482353 123.681765,17.4917647 129.685294,18.6488235 C133.267647,19.3982353 134.017059,19.9788235 134.017059,21.1729412 C134.017059,22.3670588 133.267647,23.0835294 130.722941,23.0835294 C127.672822,23.0284324 124.683755,22.2192766 122.022353,20.7282353 L122.022353,26.1223529 C123.83,27.0076471 126.218235,28 130.669412,28 C136.948824,28 139.44,25.2041176 139.44,21.0411765 M139.44,21.0411765 C139.44,17.1170588 137.360588,15.2764706 131.488824,14.0123529 C128.248235,13.2958824 127.461765,12.5794118 127.461765,11.5417647 C127.461765,10.2447059 128.622941,9.70117647 130.755882,9.70117647 C133.35,9.70117647 135.907059,10.4876471 138.332353,11.5788235 L138.332353,6.43588235 C136.007291,5.37737353 133.474822,4.85258965 130.920588,4.9 C125.118824,4.9 122.117059,7.42411765 122.117059,11.5541176" id="Shape" fill-rule="nonzero" opacity="0.35"/>
                    <polygon id="Path" opacity="0.35" points="202.802353 5.24176471 202.802353 27.6582353 207.578824 27.6582353 207.578824 10.5658824 209.592353 15.1035294 216.349412 27.6582353 222.352941 27.6582353 222.352941 5.24176471 217.576471 5.24176471 217.576471 19.7111765 215.768824 15.5111765 210.341765 5.24176471"/>
                    <rect id="Rectangle" opacity="0.35" x="167.201176" y="5.24176471" width="5.22117647" height="22.4164706"/>
                    <path d="M161.177059,21.0411765 C161.177059,17.1170588 159.097647,15.2764706 153.225882,14.0123529 C149.985294,13.2958824 149.198824,12.5794118 149.198824,11.5417647 C149.198824,10.2447059 150.36,9.70117647 152.492941,9.70117647 C155.087059,9.70117647 157.644118,10.4876471 160.069412,11.5788235 L160.069412,6.43588235 C157.744349,5.37737353 155.21188,4.85258965 152.657647,4.9 C146.855882,4.9 143.854118,7.42411765 143.854118,11.5541176 C143.854118,14.8482353 145.39,17.4917647 151.393529,18.6488235 C154.975882,19.3982353 155.725294,19.9788235 155.725294,21.1729412 C155.725294,22.3670588 154.975882,23.0835294 152.431176,23.0835294 C149.381057,23.0284324 146.39199,22.2192766 143.730588,20.7282353 L143.730588,26.1223529 C145.538235,27.0076471 147.926471,28 152.377647,28 C158.657059,28 161.148235,25.2041176 161.148235,21.0411765" id="Path" opacity="0.35"/>
                    <polygon id="Path" opacity="0.35" points="81.5952941 5.24176471 81.5952941 27.6582353 92.3258824 27.6582353 94.0141176 22.8158824 86.8494118 22.8158824 86.8494118 5.24176471"/>
                    <polygon id="Path" opacity="0.35" points="60.3935294 5.24176471 60.3935294 10.0882353 66.1952941 10.0882353 66.1952941 27.6582353 71.4494118 27.6582353 71.4494118 10.0882353 77.6588235 10.0882353 77.6588235 5.24176471"/>
                    <path d="M52.7758824,5.24176471 L45.8911765,5.24176471 L38.0676471,27.6582353 L44.0588235,27.6582353 L45.1541176,23.8823529 C47.8878422,24.6874228 50.7956872,24.6874228 53.5294118,23.8823529 L54.6370588,27.6582353 L60.6076471,27.6582353 L52.7758824,5.24176471 Z M49.3335294,19.8429412 C48.3579933,19.8442922 47.3873128,19.7056235 46.4511765,19.4311765 L49.3335294,9.64352941 L52.2158824,19.4311765 C51.279746,19.7056235 50.3090655,19.8442922 49.3335294,19.8429412 L49.3335294,19.8429412 Z" id="Shape" fill-rule="nonzero" opacity="0.351190476"/>
                    <path d="M110.822353,5.24176471 L103.937647,5.24176471 L96.1141176,27.6582353 L102.084706,27.6582353 L103.200588,23.8823529 C105.929174,24.6841926 108.830826,24.6841926 111.559412,23.8823529 L112.667059,27.6582353 L118.637647,27.6582353 L110.822353,5.24176471 Z M107.38,19.8429412 C106.404464,19.8442922 105.433783,19.7056235 104.497647,19.4311765 L107.38,9.64352941 L110.262353,19.4311765 C109.326217,19.7056235 108.355536,19.8442922 107.38,19.8429412 L107.38,19.8429412 Z" id="Shape" fill-rule="nonzero" opacity="0.351190476"/>
                    <path d="M191.231765,5.24176471 L184.347059,5.24176471 L176.523529,27.6582353 L182.494118,27.6582353 L183.61,23.8823529 C186.338586,24.6841926 189.240238,24.6841926 191.968824,23.8823529 L193.076471,27.6582353 L199.047059,27.6582353 L191.231765,5.24176471 Z M187.789412,19.8429412 C186.813876,19.8442922 185.843195,19.7056235 184.907059,19.4311765 L187.789412,9.64352941 L190.671765,19.4311765 C189.735628,19.7056235 188.764948,19.8442922 187.789412,19.8429412 L187.789412,19.8429412 Z" id="Shape" fill-rule="nonzero" opacity="0.351190476"/>
                </g>
            </g>
        </g>
    </g>
</symbol><symbol id="dropbox" viewBox="0 0 167 32">
    <g id="Page-1" stroke="none" stroke-width="1" fill="none" fill-rule="evenodd" opacity="0.350539435">
        <g id="Version-B" transform="translate(-80.000000, -753.000000)" fill="#000000" fill-rule="nonzero">
            <g id="Logos" transform="translate(80.000000, 745.000000)">
                <g id="Dropbox" transform="translate(0.000000, 8.000000)">
                    <path d="M19.1023251,6.01880878 L9.55116255,12.0376176 L19.1023251,18.0564263 L9.55116255,24.0752351 L0,18.0062696 L9.55116255,11.9874608 L0,6.01880878 L9.55116255,0 L19.1023251,6.01880878 Z M9.5003585,25.9811912 L19.051521,19.9623824 L28.6026836,25.9811912 L19.051521,32 L9.5003585,25.9811912 Z M19.1023251,18.0062696 L28.6534877,11.9874608 L19.1023251,6.01880878 L28.6026836,0 L38.1538462,6.01880878 L28.6026836,12.0376176 L38.1538462,18.0564263 L28.6026836,24.0752351 L19.1023251,18.0062696 Z" id="Shape"/>
                    <path d="M45.5384615,5.29094522 L53.3666163,5.29094522 C58.3622151,5.29094522 62.4822965,8.08856089 62.4822965,14.483111 L62.4822965,15.8319614 C62.4822965,22.2764689 58.6197202,25.1739994 53.5211194,25.1739994 L45.5384615,25.1739994 L45.5384615,5.29094522 Z M49.9160481,8.88787965 L49.9160481,21.5271076 L53.2636143,21.5271076 C56.0961703,21.5271076 58.0017079,19.7286404 58.0017079,15.7320466 L58.0017079,14.6829407 C58.0017079,10.6863469 55.9931682,8.88787965 53.1091112,8.88787965 L49.9160481,8.88787965 Z M64.7998423,9.08770934 L68.3019116,9.08770934 L68.8684228,12.834516 C69.537936,10.2866875 71.2374696,8.93783707 74.3275307,8.93783707 L75.4090521,8.93783707 L75.4090521,13.2341754 L73.6065165,13.2341754 C70.0529462,13.2341754 69.1774289,14.4331536 69.1774289,17.8302583 L69.1774289,25.2239569 L64.8513434,25.2239569 L64.8513434,9.08770934 L64.7998423,9.08770934 Z M76.2845694,17.4805563 L76.2845694,17.0309395 C76.2845694,11.6355379 79.8381397,8.68804996 84.6792354,8.68804996 C89.6233331,8.68804996 93.0739013,11.6355379 93.0739013,17.0309395 L93.0739013,17.4805563 C93.0739013,22.7760431 89.7263352,25.6236162 84.6792354,25.6236162 C79.3231295,25.5736588 76.2845694,22.7760431 76.2845694,17.4805563 Z M88.6448138,17.4305989 L88.6448138,17.0309395 C88.6448138,14.0334942 87.0997832,12.235027 84.6277343,12.235027 C82.2071865,12.235027 80.6106549,13.8836219 80.6106549,17.0309395 L80.6106549,17.4305989 C80.6106549,20.3281294 82.1556855,21.9767244 84.6277343,21.9767244 C87.0997832,21.926767 88.6448138,20.3281294 88.6448138,17.4305989 Z M95.3399461,9.08770934 L98.9450174,9.08770934 L99.3570256,12.1351121 C100.232543,10.0868578 102.08658,8.68804996 104.816133,8.68804996 C109.039217,8.68804996 111.820272,11.6355379 111.820272,17.080897 L111.820272,17.5305138 C111.820272,22.8260006 108.730211,25.6236162 104.816133,25.6236162 C102.189582,25.6236162 100.387046,24.4745955 99.5115286,22.6261709 L99.5115286,30.7692308 L95.2884451,30.7692308 L95.3399461,9.08770934 L95.3399461,9.08770934 Z M107.442685,17.4305989 L107.442685,17.080897 C107.442685,13.8836219 105.743152,12.2849844 103.477107,12.2849844 C101.056559,12.2849844 99.4600276,14.0834516 99.4600276,17.080897 L99.4600276,17.3806415 C99.4600276,20.2282146 101.005058,22.0266818 103.425606,22.0266818 C105.897655,21.9767244 107.442685,20.4280443 107.442685,17.4305989 Z M118.206398,22.2265115 L117.845891,25.1739994 L114.137818,25.1739994 L114.137818,3.69230769 L118.360901,3.69230769 L118.360901,11.9352824 C119.28792,9.83707068 121.141956,8.68804996 123.768508,8.68804996 C127.734087,8.73800738 130.669645,11.3857508 130.669645,16.731195 L130.669645,17.2307692 C130.669645,22.5762135 127.88859,25.6236162 123.665506,25.6236162 C120.884451,25.5736588 119.081916,24.3247232 118.206398,22.2265115 Z M126.240557,17.2307692 L126.240557,16.8311098 C126.240557,13.8836219 124.592524,12.235027 122.274979,12.235027 C119.905932,12.235027 118.257899,14.0834516 118.257899,16.8810673 L118.257899,17.2307692 C118.257899,20.2282146 119.854431,21.9767244 122.223478,21.9767244 C124.747028,21.9767244 126.240557,20.4280443 126.240557,17.2307692 Z M132.523681,17.4805563 L132.523681,17.0309395 C132.523681,11.6355379 136.077252,8.68804996 140.918347,8.68804996 C145.862445,8.68804996 149.313013,11.6355379 149.313013,17.0309395 L149.313013,17.4805563 C149.313013,22.7760431 145.913946,25.6236162 140.918347,25.6236162 C135.562241,25.5736588 132.523681,22.7760431 132.523681,17.4805563 Z M144.935427,17.4305989 L144.935427,17.0309395 C144.935427,14.0334942 143.390396,12.235027 140.918347,12.235027 C138.497799,12.235027 136.901268,13.8836219 136.901268,17.0309395 L136.901268,17.4305989 C136.901268,20.3281294 138.446298,21.9767244 140.918347,21.9767244 C143.390396,21.926767 144.935427,20.3281294 144.935427,17.4305989 Z M154.978125,16.8311098 L149.15851,9.08770934 L154.154109,9.08770934 L157.501675,13.9335793 L160.900742,9.08770934 L165.84484,9.08770934 L159.922223,16.7811524 L166.153846,25.1739994 L161.261249,25.1739994 L157.450174,19.8285552 L153.742101,25.1739994 L148.6435,25.1739994 L154.978125,16.8311098 Z" id="Shape"/>
                </g>
            </g>
        </g>
    </g>
</symbol><symbol id="icon-phone" viewBox="0 0 48.95 49.02"><title>icon-phone0</title><g id="Layer_2" data-name="Layer 2"><g id="Layer_1-2" data-name="Layer 1"><path class="cls-1" d="M8.17,6.62A1.32,1.32,0,0,1,9,6.37a1.4,1.4,0,0,1,1.13.52l4.72,5.87a2.31,2.31,0,0,1,.09,2.5l-2.1,3h0a4,4,0,0,0,.4,4.86l11,11.41a4.06,4.06,0,0,0,4.85.65l2.56-1.53a2,2,0,0,1,2.3.32l5.85,6.25h0a1.09,1.09,0,0,1-.12,1.63l-4.32,3.46A9.93,9.93,0,0,1,31.69,47s-2.25.19-7.87-3.5C16.56,38.7,7.15,28.76,3.22,19a18.78,18.78,0,0,1-1.17-6.25A4.07,4.07,0,0,1,3.52,9.93ZM22.7,45.19c5.25,3.45,8,3.83,9,3.83a1.62,1.62,0,0,0,.38,0,11.63,11.63,0,0,0,4.54-2.06l4.33-3.45h0a3.15,3.15,0,0,0,1.19-2.24,3.1,3.1,0,0,0-.86-2.39L35.4,32.61a4,4,0,0,0-4.84-.68L28,33.46a2,2,0,0,1-2.33-.31l-11-11.4a2,2,0,0,1-.19-2.29l2.1-3.05a4.32,4.32,0,0,0-.18-4.93L11.71,5.61h0A3.51,3.51,0,0,0,7,5L2.33,8.26A6.15,6.15,0,0,0,0,12.74a20.83,20.83,0,0,0,1.32,7C5.6,30.39,15.4,40.39,22.7,45.19Z"/><path class="cls-1" d="M47.93,27.2a1.06,1.06,0,0,0,.73-.3,1,1,0,0,0,.29-.72A26.2,26.2,0,0,0,22.78,0a1,1,0,1,0,0,2.05A24.16,24.16,0,0,1,46.91,26.18a1,1,0,0,0,1,1Z"/><path class="cls-1" d="M39,26.18a1,1,0,0,0,2,0A18.61,18.61,0,0,0,22.49,7.6a1,1,0,0,0,0,2.05A16.52,16.52,0,0,1,39,26.18Z"/><path class="cls-1" d="M21.75,17.37a1,1,0,0,0,1,1,7.8,7.8,0,0,1,7.78,7.79,1,1,0,0,0,2.05,0,9.83,9.83,0,0,0-9.83-9.83,1.06,1.06,0,0,0-.73.3,1,1,0,0,0-.3.72Z"/></g></g></symbol><symbol id="logo" viewBox="0 0 51 37.59"><title>icon-email</title><g id="Layer_2" data-name="Layer 2"><g id="Layer_1-2" data-name="Layer 1"><path class="cls-1" d="M33.65,19,46.84,6.85V30.72ZM20.06,21.45l3.32,3.05a3,3,0,0,0,4.24,0l3.32-3.05,13.44,12H6.62ZM17.35,19,4.16,30.72V6.85Zm8.15,2.52L6.64,4.16H44.36Zm22-21H3.55a3.06,3.06,0,0,0-3,3.05V34a3.06,3.06,0,0,0,3.05,3.05h43.9a3.06,3.06,0,0,0,3-3.05V3.55A3.06,3.06,0,0,0,47.45.5Z"/></g></g></symbol><symbol id="okta" viewBox="0 0 400 135">
    <g id="Page-1" stroke="none" stroke-width="1" fill="none" fill-rule="evenodd" opacity="0.350539435">
        <g id="Version-B" transform="translate(-907.000000, -646.000000)" fill="#000000" fill-rule="nonzero">
            <g id="Okta_logo" transform="translate(907.000000, 646.000000)">
                <g id="Group">
                    <path d="M50.3,33.8 C22.5,33.8 0,56.3 0,84.1 C0,111.9 22.5,134.4 50.3,134.4 C78.1,134.4 100.6,111.9 100.6,84.1 C100.6,56.3 78.1,33.8 50.3,33.8 Z M50.3,109.3 C36.4,109.3 25.1,98 25.1,84.1 C25.1,70.2 36.4,58.9 50.3,58.9 C64.2,58.9 75.5,70.2 75.5,84.1 C75.5,98 64.2,109.3 50.3,109.3 Z" id="Shape"/>
                    <path d="M138.7,101 C138.7,97 143.5,95.1 146.3,97.9 C158.9,110.7 179.7,132.7 179.8,132.8 C180.1,133.1 180.4,133.6 181.6,134 C182.1,134.2 182.9,134.2 183.8,134.2 L206.5,134.2 C210.6,134.2 211.8,129.5 209.9,127.1 L172.3,88.6 L170.3,86.6 C166,81.5 166.5,79.5 171.4,74.3 L201.2,41 C203.1,38.6 201.9,34 197.7,34 L177.1,34 C176.3,34 175.7,34 175.1,34.2 C173.9,34.6 173.4,35 173.1,35.4 C173,35.5 156.5,53.3 146.3,64.2 C143.5,67.2 138.5,65.2 138.5,61.1 L138.5,4 C138.5,1.1 136.1,0 134.2,0 L117.4,0 C114.5,0 113.1,1.9 113.1,3.6 L113.1,130.2 C113.1,133.1 115.5,133.9 117.5,133.9 L134.3,133.9 C136.9,133.9 138.6,132 138.6,130.1 L138.6,128.8 L138.6,101 L138.7,101 Z" id="Path"/>
                    <path d="M275.9,129.6 L274.1,112.8 C273.9,110.5 271.7,108.9 269.4,109.3 C268.1,109.5 266.8,109.6 265.5,109.6 C252.1,109.6 241.2,99.1 240.4,85.8 C240.4,85.4 240.4,84.9 240.4,84.4 L240.4,63.8 C240.4,61.1 242.4,58.9 245.1,58.9 L267.6,58.9 C269.2,58.9 271.6,57.5 271.6,54.6 L271.6,38.7 C271.6,35.6 269.6,34 267.8,34 L245.1,34 C242.5,34 240.4,32.1 240.3,29.5 L240.3,4 C240.3,2.4 239.1,0 236,0 L219.3,0 C217.2,0 215.2,1.3 215.2,3.9 C215.2,3.9 215.2,85.4 215.2,85.8 C215.9,113 238.2,134.7 265.5,134.7 C267.8,134.7 270,134.5 272.2,134.2 C274.6,133.9 276.2,131.9 275.9,129.6 Z" id="Path"/>
                </g>
                <path d="M397.1,108.5 C382.9,108.5 380.7,103.4 380.7,84.3 C380.7,84.2 380.7,84.2 380.7,84.1 L380.7,38.2 C380.7,36.6 379.5,33.9 376.3,33.9 L359.5,33.9 C357.4,33.9 355.1,35.6 355.1,38.2 L355.1,40.3 C347.8,36.1 339.3,33.7 330.3,33.7 C302.5,33.7 280,56.2 280,84 C280,111.8 302.5,134.3 330.3,134.3 C342.8,134.3 354.2,129.7 363,122.2 C367.7,129.4 375.3,134.2 387.2,134.3 C389.2,134.3 400,134.7 400,129.6 L400,111.7 C400,110.2 398.8,108.5 397.1,108.5 Z M330.4,109.3 C316.5,109.3 305.2,98 305.2,84.1 C305.2,70.2 316.5,58.9 330.4,58.9 C344.3,58.9 355.6,70.2 355.6,84.1 C355.5,98 344.2,109.3 330.4,109.3 Z" id="Shape"/>
            </g>
        </g>
    </g>
</symbol><symbol id="symantec" viewBox="0 0 160 44">
    <g id="Page-1" stroke="none" stroke-width="1" fill="none" fill-rule="evenodd">
        <g id="Version-B" transform="translate(-1201.000000, -745.000000)">
            <g id="Logos" transform="translate(80.000000, 745.000000)">
                <g id="Symantec" transform="translate(1121.000000, 0.000000)">
                    <path d="M48.6223864,35.5478983 C44.7839458,35.5478983 42.3370983,34.0869492 41.2221831,33.2158983 L41.1065898,33.1271525 L41.1848949,33.0033559 L42.7853017,30.5005763 L42.8770305,30.3566441 L43.0157424,30.4588136 C43.9472,31.1419322 45.9063186,32.289661 48.5634712,32.289661 C50.8462508,32.289661 52.1558102,31.2977966 52.1558102,29.5698644 C52.1558102,27.669661 50.6150644,27.1274915 47.8206915,26.1445763 L47.4910644,26.0274915 C44.6877424,25.0520339 42.0917424,23.6276271 42.0917424,19.8264746 C42.0917424,16.4071525 44.723539,14.1996949 48.7961492,14.1996949 C51.2101831,14.1996949 53.0857763,14.6396949 54.6966237,15.5875593 L54.8234034,15.6621356 L54.7592678,15.7948814 L53.479539,18.442339 L53.4079458,18.5914915 L53.2602847,18.5161695 C51.8873356,17.8129153 50.4055051,17.4564407 48.8550644,17.4564407 C47.4023186,17.4564407 45.6706576,17.8531864 45.6706576,19.7392203 C45.6706576,21.5857288 47.0339119,22.0354237 49.7484881,22.9318305 C52.7002169,23.8938644 55.8495729,25.2765085 55.8495729,29.5131864 C55.8495729,33.2919661 53.1484203,35.5478983 48.6223864,35.5478983" id="Fill-1" fill="#000000" opacity="0.35"/>
                    <path d="M58.7418644,40.6953763 C58.0401017,40.6953763 57.3741356,40.6140881 56.5828814,40.4313763 L56.4374576,40.3985627 L56.4605763,40.2494102 L56.8394237,37.776461 L56.8617966,37.6220881 L57.0169153,37.6407322 L57.2637627,37.6713085 C57.6418644,37.7182915 57.9409153,37.7578169 58.3645085,37.7578169 C59.7859322,37.7578169 60.6950169,37.2186305 61.3035593,36.0157153 L55.9728475,20.3442576 L55.8997627,20.1317153 L56.1257288,20.1317153 L59.7322373,20.1317153 L59.8530508,20.1317153 L59.8881017,20.2488 L62.9815254,31.324122 L65.7430847,20.2532746 L65.7721695,20.1317153 L65.8989492,20.1317153 L69.3003729,20.1317153 L69.5181356,20.1317153 L69.4547458,20.3405288 L64.714678,35.8419525 C63.7101356,39.1546305 61.810678,40.6953763 58.7418644,40.6953763" id="Fill-3" fill="#000000" opacity="0.35"/>
                    <path d="M91.2255729,35.2871797 L91.0652339,35.2871797 L87.5743186,35.2871797 L87.4139797,35.2871797 L87.4139797,35.1268407 L87.4139797,25.1492814 C87.4139797,23.8852136 87.1529627,23.0410102 85.8888949,23.0410102 C85.0170983,23.0410102 83.9976407,23.5615525 82.9364203,24.5511797 L82.9364203,35.1268407 L82.9364203,35.2871797 L82.7760814,35.2871797 L79.2859119,35.2871797 L79.1255729,35.2871797 L79.1255729,35.1268407 L79.1255729,25.1492814 C79.1255729,23.8852136 78.8653017,23.0410102 77.5989966,23.0410102 C76.6712678,23.0410102 75.5981153,23.6100271 74.6472678,24.6048746 L74.6472678,35.1268407 L74.6472678,35.2871797 L74.4869288,35.2871797 L70.9960136,35.2871797 L70.8356746,35.2871797 L70.8356746,35.1268407 L70.8356746,20.2928746 L70.8356746,20.1325356 L70.9960136,20.1325356 L73.1184542,20.1325356 L73.235539,20.1325356 L73.2705898,20.2436542 L73.9432678,22.3064339 C75.5205559,20.6269763 77.1187254,19.8118576 78.8198102,19.8118576 C80.979539,19.8118576 81.8610305,20.9901627 82.3621831,22.1006034 C83.4271322,21.0162644 85.0693017,19.8118576 87.1089627,19.8118576 C90.511878,19.8118576 91.2255729,22.7300271 91.2255729,25.1783661 L91.2255729,35.1268407 L91.2255729,35.2871797 Z" id="Fill-5" fill="#000000" opacity="0.35"/>
                    <path d="M101.462285,28.1092136 C98.9669627,28.5939593 97.7379458,29.0488746 97.2412678,29.6708407 C96.932522,30.0288068 96.8385559,30.3248746 96.8385559,30.9378915 C96.8385559,32.0684678 97.4463525,32.6665695 98.5963186,32.6665695 C99.5486576,32.6665695 100.612115,32.2646034 101.462285,31.5874508 L101.462285,28.1092136 Z M97.8110305,35.5481966 C95.0129288,35.5481966 93.0567932,33.7479254 93.0567932,31.1705695 C93.0567932,29.5134847 93.6332678,28.3508407 94.8712339,27.5163322 C96.1345559,26.655722 98.2346237,26.0322644 101.462285,25.5631797 L101.462285,25.1783661 C101.462285,23.5153153 100.858963,22.8963322 99.2369288,22.8963322 C97.8483186,22.8963322 96.4515051,23.4757898 95.1479119,24.1022305 L95.0092,24.1708407 L94.936861,24.0321288 L93.7145559,21.7351797 L93.6444542,21.6024339 L93.7712339,21.5218915 C95.6915729,20.3391119 97.4739458,19.8118576 99.556861,19.8118576 C103.297607,19.8118576 105.273132,21.7471119 105.273132,25.4117898 L105.273132,35.1253492 L105.273132,35.2856881 L105.112793,35.2856881 L102.988861,35.2856881 L102.882217,35.2856881 L102.8412,35.1879932 L102.205064,33.7158576 C101.255708,34.5869085 99.7656746,35.5481966 97.8110305,35.5481966 L97.8110305,35.5481966 Z" id="Fill-7" fill="#000000" opacity="0.35"/>
                    <path d="M120.977403,35.2871797 L120.817064,35.2871797 L117.326895,35.2871797 L117.167302,35.2871797 L117.167302,35.1268407 L117.167302,25.1492814 C117.167302,23.6726712 116.648251,23.0410102 115.437878,23.0410102 C114.421403,23.0410102 113.228183,23.6502983 112.310895,24.6324678 L112.310895,35.1268407 L112.310895,35.2871797 L112.14981,35.2871797 L108.659641,35.2871797 L108.499302,35.2871797 L108.499302,35.1268407 L108.499302,20.2928746 L108.499302,20.1325356 L108.659641,20.1325356 L110.783573,20.1325356 L110.900658,20.1325356 L110.935708,20.2436542 L111.607641,22.3325356 C113.177471,20.6366712 114.830827,19.8118576 116.657946,19.8118576 C119.525403,19.8118576 120.977403,21.6173492 120.977403,25.1783661 L120.977403,35.1268407 L120.977403,35.2871797 Z" id="Fill-9" fill="#000000" opacity="0.35"/>
                    <path d="M128.9332,35.5478983 C125.947166,35.5478983 124.497403,34.0697966 124.497403,31.0241017 L124.497403,22.8669492 L122.44581,22.8669492 L122.285471,22.8669492 L122.285471,22.7066102 L122.285471,20.2925763 L122.285471,20.1329831 L122.44581,20.1329831 L124.5772,20.1329831 L125.253607,16.0193559 L125.27598,15.8843729 L125.412454,15.8843729 L128.147912,15.8843729 L128.308251,15.8843729 L128.308251,16.0454576 L128.308251,20.1329831 L131.346488,20.1329831 L131.506827,20.1329831 L131.506827,20.2925763 L131.506827,22.7066102 L131.506827,22.8669492 L131.346488,22.8669492 L128.308251,22.8669492 L128.308251,30.8212542 C128.308251,32.1188814 128.529742,32.5805085 129.776658,32.5805085 C130.154014,32.5805085 130.748386,32.4716271 131.329336,32.2956271 L131.502353,32.242678 L131.53442,32.4209153 L131.971437,34.8356949 L131.99381,34.9654576 L131.872251,35.014678 C131.477742,35.1750169 130.401607,35.5478983 128.9332,35.5478983" id="Fill-11" fill="#000000" opacity="0.35"/>
                    <path d="M136.551763,26.3846373 L141.709458,26.3846373 C141.621458,23.8826034 140.801119,22.6632814 139.200712,22.6632814 C137.631627,22.6632814 136.763559,23.8826034 136.551763,26.3846373 M139.460983,35.5478237 C135.218339,35.5478237 132.582068,32.5781966 132.582068,27.7963661 C132.582068,22.9451797 135.178814,19.8114847 139.200712,19.8114847 C143.276305,19.8114847 145.61278,22.7326373 145.61278,27.8254508 L145.61278,28.7285695 L145.61278,28.8881627 L145.453186,28.8881627 L136.521186,28.8881627 C136.729254,31.338739 137.720373,32.4350102 139.723492,32.4350102 C141.361932,32.4350102 142.44478,31.8279593 143.592508,31.0933831 L143.728237,31.0076203 L143.814746,31.1433492 L145.210068,33.3239593 L145.289119,33.4477559 L145.174271,33.5379932 C143.752847,34.6372475 142.344102,35.5478237 139.460983,35.5478237" id="Fill-13" fill="#000000" opacity="0.35"/>
                    <path d="M154.061898,35.5478983 C149.010847,35.5478983 147.210576,31.5438983 147.210576,27.7956949 C147.210576,24.1138644 149.004881,19.8115593 154.061898,19.8115593 C156.147797,19.8115593 157.604271,20.3097288 158.936949,21.4805763 L159.045085,21.5745424 L158.963051,21.6931186 L157.364136,23.9915593 L157.268678,24.1272881 L157.134441,24.0281017 C156.298441,23.4001695 155.460949,22.9825424 154.090983,22.9825424 C152.13261,22.9825424 151.139254,24.5933898 151.139254,27.7666102 C151.139254,30.8883729 152.134102,32.406 154.177492,32.406 C155.527322,32.406 156.403593,31.8973898 157.301492,31.1344746 L157.429763,31.0255932 L157.531932,31.1590847 L159.190508,33.2830169 L159.276271,33.3933898 L159.179322,33.4940678 C157.810847,34.8953559 156.185831,35.5478983 154.061898,35.5478983" id="Fill-15" fill="#000000" opacity="0.35"/>
                    <g id="Group-19" transform="translate(0.000000, 5.681668)">
                        <polygon id="Clip-18" points="0 0.174657627 37.8592407 0.174657627 37.8592407 38.0338983 0 38.0338983"/>
                        <path d="M18.9295458,6.1631322 C15.4759186,6.1631322 12.2266305,7.5092339 9.77903729,9.95309831 C7.33517288,12.3984542 5.98757966,15.6484881 5.98757966,19.102861 C5.98757966,22.5579797 7.33517288,25.8087593 9.77978305,28.2563525 C12.225139,30.6972339 15.4751729,32.0448271 18.9295458,32.0448271 C22.3861559,32.0448271 25.6354441,30.6972339 28.0822915,28.2533695 C30.5239186,25.8087593 31.8715119,22.5579797 31.8715119,19.102861 C31.8715119,15.6484881 30.5239186,12.3984542 28.0815458,9.95160678 C25.6339525,7.5092339 22.3831729,6.1631322 18.9295458,6.1631322 M18.9295458,38.0340475 C8.4948339,38.0325559 0.00134237288,29.5405559 -0.000149152542,19.102861 C0.00134237288,8.66665763 8.4948339,0.17540339 18.9295458,0.174657627 C29.3657492,0.17540339 37.8592407,8.66665763 37.8592407,19.102861 C37.8592407,29.5405559 29.3657492,38.0325559 18.9295458,38.0340475" id="Fill-17" fill="#000000" opacity="0.347632999"/>
                    </g>
                    <polygon id="Clip-23" points="0 43.7155661 165.814373 43.7155661 165.814373 -0.000298305085 0 -0.000298305085"/>
                    <polygon id="Fill-22" fill="#000000" opacity="0.35" points="39.5507797 4.41685424 41.0273898 4.41685424 41.0273898 2.94173559 39.5507797 2.94173559"/>
                    <polygon id="Fill-24" fill="#000000" opacity="0.35" points="39.5507797 1.47780339 41.0273898 1.47780339 41.0273898 -0.000298305085 39.5507797 -0.000298305085"/>
                    <polygon id="Fill-25" fill="#000000" opacity="0.35" points="35.3968814 5.84797288 36.7765424 5.84797288 36.7765424 4.40641356 35.3968814 4.40641356"/>
                    <polygon id="Fill-26" fill="#000000" opacity="0.35" points="32.6651525 8.61400678 34.0552542 8.61400678 34.0552542 7.23658305 32.6651525 7.23658305"/>
                    <polygon id="Fill-27" fill="#000000" opacity="0.35" points="36.7772881 7.23658305 38.3225085 7.23658305 38.3225085 5.84797288 36.7772881 5.84797288"/>
                    <polygon id="Fill-28" fill="#000000" opacity="0.35" points="31.2810169 7.23658305 32.6644068 7.23658305 32.6644068 5.91583729 31.2810169 5.91583729"/>
                    <polygon id="Fill-29" fill="#000000" opacity="0.35" points="35.3968814 8.61400678 36.7765424 8.61400678 36.7765424 7.23658305 35.3968814 7.23658305"/>
                    <polygon id="Fill-30" fill="#000000" opacity="0.35" points="38.0905763 2.94173559 39.5500339 2.94173559 39.5500339 1.47854915 38.0905763 1.47854915"/>
                    <polygon id="Fill-31" fill="#000000" opacity="0.35" points="35.3976271 4.40641356 38.0905763 4.40641356 38.0905763 2.94173559 35.3976271 2.94173559"/>
                    <polygon id="Fill-32" fill="#000000" opacity="0.35" points="34.0552542 7.23658305 35.3976271 7.23658305 35.3976271 4.4056678 34.0552542 4.4056678"/>
                    <path d="M34.0552542,8.61408136 L34.0552542,10.0026915 L32.6651525,10.0026915 L32.6651525,8.61408136 L30.3592542,8.61408136 L30.3592542,9.61564068 L29.1227797,9.61564068 L29.1227797,10.849878 L30.5031864,10.849878 L30.5031864,12.2258102 L29.1227797,12.2258102 L29.1227797,10.849878 L27.6573559,10.849878 L27.6573559,13.0081153 L26.2694915,13.0081153 L26.2694915,14.3840475 L25.3477288,14.3840475 L25.3477288,15.7674373 L24.3364746,15.7674373 C23.1984407,17.4580814 20.3496271,22.7283864 19.4875254,24.8761831 C16.383661,20.5552339 13.9726102,18.8414712 12.0738983,18.2217424 C11.0484746,17.9129966 9.81498305,19.0286576 11.5168136,20.7834373 C15.4238644,25.080522 16.6543729,28.6370644 17.8416271,31.4761831 C18.4695593,32.9721831 21.2863051,33.2033695 21.8530847,31.6812678 C23.0552542,28.4595729 24.7981017,24.8411322 26.8616271,21.8692678 L26.8616271,20.3292678 L27.9638644,20.3292678 L27.9638644,18.9414034 L29.1227797,18.9414034 L29.1227797,17.3313017 L30.5084068,17.3313017 L30.5084068,15.780861 L29.1078644,15.780861 L29.1078644,14.3706237 L30.5084068,14.3706237 L30.5084068,15.780861 L31.8783729,15.780861 L31.8738983,14.3840475 L32.9738983,14.3840475 L32.9738983,12.7001153 L34.2081356,12.7001153 L34.2081356,11.5404542 L35.3976271,11.5404542 L35.3976271,8.61408136 L34.0552542,8.61408136 Z" id="Fill-33" fill="#000000" opacity="0.35"/>
                </g>
            </g>
        </g>
    </g>
</symbol><symbol id="zoom" viewBox="0 0 356 80">
    <g id="Page-1" stroke="none" stroke-width="1" fill="none" fill-rule="evenodd" opacity="0.350539435">
        <g id="Version-B" transform="translate(-379.000000, -516.000000)" fill="#000000">
            <g id="Logos" transform="translate(80.000000, 515.000000)">
                <g id="Asset-1" transform="translate(299.000000, 0.000000)">
                    <path d="M217,24 C226.348641,33.3811577 226.33107,48.561963 216.960739,57.9214552 C207.590408,67.2809474 192.409592,67.2809474 183.039261,57.9214552 C173.66893,48.561963 173.651359,33.3811577 183,24 C187.503245,19.4810916 193.620365,16.9410743 200,16.9410743 C206.379635,16.9410743 212.496755,19.4810916 217,24 Z M228.31,12.69 C241.814953,26.1704266 243.917731,47.3130404 233.33251,63.1893993 C222.747289,79.0657581 202.42174,85.2547676 184.78468,77.9719264 C167.147619,70.6890852 157.110446,51.9624483 160.810764,33.2431183 C164.511082,14.5237883 180.918463,1.02454259 200,1 C210.607793,1.0022655 220.780291,5.21802501 228.28,12.72 L228.31,12.69 Z M133,24 C142.348641,33.3811577 142.33107,48.561963 132.960739,57.9214552 C123.590408,67.2809474 108.409592,67.2809474 99.039261,57.9214552 C89.6689298,48.561963 89.6513594,33.3811577 99,24 C103.503245,19.4810916 109.620365,16.9410743 116,16.9410743 C122.379635,16.9410743 128.496755,19.4810916 133,24 Z M144.31,12.69 C157.814953,26.1704266 159.917731,47.3130404 149.33251,63.1893993 C138.747289,79.0657581 118.42174,85.2547676 100.78468,77.9719264 C83.1476194,70.6890852 73.1104456,51.9624483 76.8107635,33.2431183 C80.5110815,14.5237883 96.9184627,1.02454259 116,1 C126.607793,1.0022655 136.780291,5.21802501 144.28,12.72 L144.31,12.69 Z M16,80.8 L20,81 L80,81 L79.8,77 C79.26,70.42 74.6,65.61 68,65.2 L64,65 L28,65 L76,17 L75.8,13 C75.6419614,6.54963563 70.4503644,1.35803864 64,1.2 L60,1 L0,1 L0.2,5 C0.511447255,11.3835064 5.61649359,16.4885527 12,16.8 L16,17 L52,17 L4,65 L4.2,69 C4.42211434,75.4227081 9.57729185,80.5778857 16,80.8 L16,80.8 Z M289.85,25 C291.13589,27.4702966 291.804927,30.2150668 291.8,33 L292,37 L292,65 L292.2,69 C292.450861,75.4101755 297.589824,80.5491387 304,80.8 L308,81 L308,37 L308.2,33 C308.217961,30.2118463 308.903776,27.4685879 310.2,25 C313.07,20.0658534 318.351293,17.034391 324.05941,17.0446982 C329.767527,17.0550053 335.037838,20.1055209 337.89,25.05 C339.161048,27.5254172 339.825962,30.2673329 339.83,33.05 L340.03,37.05 L340.03,65 L340.23,69 C340.451164,75.4115765 345.589007,80.562515 352,80.8 L356,81 L356,33 C356.001659,19.6906407 347.765047,7.76980159 335.315575,3.06345641 C322.866102,-1.64288877 308.803314,1.84798036 300,11.83 C289.356114,-0.235379074 271.408788,-2.5216081 258.08,6.49 C255,3 248,1 244,1 L244,81 L248,80.8 C254.68,80.36 259.54,75.64 259.8,69 L260,65 L260,37 L260.2,33 C260.221052,30.2122378 260.906687,27.469697 262.2,25 C265.061092,20.0607011 270.33689,17.0197241 276.045,17.0197241 C281.75311,17.0197241 287.028908,20.0607011 289.89,25 L289.85,25 Z" id="Shape"/>
                </g>
            </g>
        </g>
    </g>
</symbol></svg>